<svg width="24" height="24" viewBox="0 0 24 24" fill="none" xmlns="http://www.w3.org/2000/svg">
<path d="M7.37959 15.0004C7.56595 14.9991 7.74897 15.0499 7.908 15.1471C8.06702 15.2443 8.19573 15.384 8.27959 15.5504C8.49577 15.9862 8.82942 16.3528 9.24288 16.609C9.65635 16.8652 10.1332 17.0008 10.6196 17.0004H13.5596C14.046 17.0008 14.5228 16.8652 14.9363 16.609C15.3498 16.3528 15.6834 15.9862 15.8996 15.5504C15.9835 15.384 16.1122 15.2443 16.2712 15.1471C16.4302 15.0499 16.6132 14.9991 16.7996 15.0004H18.4196L18.9996 8.68042C19.0209 8.47754 18.9796 8.273 18.8813 8.09426C18.7829 7.91551 18.6323 7.77111 18.4496 7.68042L17.0596 7.00042L16.2496 3.76042C16.1948 3.53855 16.0657 3.34212 15.8838 3.20384C15.7018 3.06556 15.478 2.99377 15.2496 3.00042H8.71959C8.49116 2.99377 8.26733 3.06556 8.08538 3.20384C7.90344 3.34212 7.77434 3.53855 7.71959 3.76042L6.93959 7.00042L5.54959 7.69042C5.36686 7.78111 5.21624 7.92551 5.11793 8.10426C5.01962 8.283 4.97832 8.48754 4.99959 8.69042L5.57959 15.0004H7.37959Z" fill="#B382E9" stroke="#B382E9" stroke-width="1.5" stroke-linecap="round" stroke-linejoin="round"/>
<path d="M16.8 15.0001H19C19.1459 14.9982 19.2905 15.0283 19.4236 15.0882C19.5566 15.1482 19.675 15.2365 19.7703 15.3471C19.8656 15.4576 19.9355 15.5877 19.9752 15.7281C20.0149 15.8686 20.0233 16.016 20 16.1601L19.47 19.3301C19.3911 19.8015 19.1461 20.2291 18.7792 20.5355C18.4123 20.8418 17.9479 21.0066 17.47 21.0001H6.46996C5.99204 21.0066 5.52758 20.8418 5.1607 20.5355C4.79382 20.2291 4.54878 19.8015 4.46996 19.3301L3.99996 16.1601C3.97659 16.016 3.98505 15.8686 4.02473 15.7281C4.06441 15.5877 4.13435 15.4576 4.22965 15.3471C4.32495 15.2365 4.44329 15.1482 4.57636 15.0882C4.70944 15.0283 4.85402 14.9982 4.99996 15.0001H7.37996C7.56632 14.9988 7.74934 15.0496 7.90837 15.1468C8.06739 15.244 8.19609 15.3836 8.27996 15.5501C8.49614 15.9858 8.82978 16.3525 9.24325 16.6087C9.65671 16.8649 10.1335 17.0004 10.62 17.0001H13.56C14.0464 17.0004 14.5232 16.8649 14.9367 16.6087C15.3501 16.3525 15.6838 15.9858 15.9 15.5501C15.9838 15.3836 16.1125 15.244 16.2715 15.1468C16.4306 15.0496 16.6136 14.9988 16.8 15.0001Z" fill="#56208C" stroke="#56208C" stroke-width="2" stroke-linecap="round" stroke-linejoin="round"/>
</svg>
