<svg width="64" height="32" viewBox="0 0 64 32" fill="none" xmlns="http://www.w3.org/2000/svg">
<path fill-rule="evenodd" clip-rule="evenodd" d="M22 16.015C22 10.7471 26.21 6 32.02 6C37.7 6 42 10.657 42 15.985C42 22.1642 36.96 26 32 26C30.36 26 28.54 25.5593 27.08 24.698C26.57 24.3876 26.14 24.1572 25.59 24.3375L23.57 24.9384C23.06 25.0986 22.6 24.698 22.75 24.1572L23.42 21.9139C23.53 21.6034 23.51 21.2729 23.35 21.0125C22.49 19.4301 22 17.6975 22 16.015ZM30.7 16.015C30.7 16.7261 31.27 17.2969 31.98 17.307C32.69 17.307 33.26 16.7261 33.26 16.025C33.26 15.314 32.69 14.7431 31.98 14.7431C31.28 14.7331 30.7 15.314 30.7 16.015ZM35.31 16.025C35.31 16.7261 35.88 17.307 36.59 17.307C37.3 17.307 37.87 16.7261 37.87 16.025C37.87 15.314 37.3 14.7431 36.59 14.7431C35.88 14.7431 35.31 15.314 35.31 16.025ZM27.37 17.307C26.67 17.307 26.09 16.7261 26.09 16.025C26.09 15.314 26.66 14.7431 27.37 14.7431C28.08 14.7431 28.65 15.314 28.65 16.025C28.65 16.7261 28.08 17.2969 27.37 17.307Z" fill="#56208C"/>
</svg>
