<svg width="25" height="24" viewBox="0 0 25 24" fill="none" xmlns="http://www.w3.org/2000/svg">
<mask id="mask0_4473_3303" style="mask-type:luminance" maskUnits="userSpaceOnUse" x="1" y="1" width="22" height="22">
<path fill-rule="evenodd" clip-rule="evenodd" d="M1.25 1.00049H22.743V22.4943H1.25V1.00049Z" fill="white"/>
</mask>
<g mask="url(#mask0_4473_3303)">
<path fill-rule="evenodd" clip-rule="evenodd" d="M6.35838 19.6755C6.93838 19.6755 7.48538 19.8955 8.06438 20.1285C11.6114 21.7685 15.8064 21.0225 18.5394 18.2905C22.1454 14.6825 22.1454 8.81349 18.5394 5.20749C16.7934 3.46149 14.4714 2.50049 11.9994 2.50049C9.52638 2.50049 7.20338 3.46249 5.45838 5.20849C2.72438 7.94049 1.98038 12.1355 3.60538 15.6485C3.83938 16.2275 4.06538 16.7915 4.06538 17.3775C4.06538 17.9625 3.86438 18.5515 3.68738 19.0715C3.54138 19.4995 3.32038 20.1455 3.46238 20.2875C3.60138 20.4315 4.25138 20.2045 4.68038 20.0575C5.19538 19.8815 5.77938 19.6795 6.35838 19.6755ZM11.9744 22.4945C10.4464 22.4945 8.90838 22.1715 7.46938 21.5055C7.04538 21.3355 6.64838 21.1755 6.36338 21.1755C6.03538 21.1775 5.59438 21.3295 5.16838 21.4765C4.29438 21.7765 3.20638 22.1505 2.40138 21.3485C1.59938 20.5455 1.96938 19.4605 2.26738 18.5875C2.41438 18.1575 2.56538 17.7135 2.56538 17.3775C2.56538 17.1015 2.43238 16.7495 2.22838 16.2425C0.355376 12.1975 1.22138 7.32249 4.39838 4.14749C6.42638 2.11849 9.12538 1.00049 11.9984 1.00049C14.8714 1.00049 17.5714 2.11749 19.5994 4.14649C23.7914 8.33849 23.7914 15.1585 19.5994 19.3505C17.5444 21.4065 14.7774 22.4945 11.9744 22.4945Z" fill="#556987"/>
</g>
<path fill-rule="evenodd" clip-rule="evenodd" d="M15.9463 13.1631C15.3943 13.1631 14.9423 12.7161 14.9423 12.1631C14.9423 11.6101 15.3853 11.1631 15.9373 11.1631H15.9463C16.4983 11.1631 16.9463 11.6101 16.9463 12.1631C16.9463 12.7161 16.4983 13.1631 15.9463 13.1631Z" fill="#556987"/>
<path fill-rule="evenodd" clip-rule="evenodd" d="M11.9375 13.1631C11.3855 13.1631 10.9335 12.7161 10.9335 12.1631C10.9335 11.6101 11.3755 11.1631 11.9285 11.1631H11.9375C12.4895 11.1631 12.9375 11.6101 12.9375 12.1631C12.9375 12.7161 12.4895 13.1631 11.9375 13.1631Z" fill="#556987"/>
<path fill-rule="evenodd" clip-rule="evenodd" d="M7.92832 13.1631C7.37632 13.1631 6.92432 12.7161 6.92432 12.1631C6.92432 11.6101 7.36732 11.1631 7.91932 11.1631H7.92832C8.48032 11.1631 8.92832 11.6101 8.92832 12.1631C8.92832 12.7161 8.48032 13.1631 7.92832 13.1631Z" fill="#556987"/>
</svg>
