<svg width="25" height="24" viewBox="0 0 25 24" fill="none" xmlns="http://www.w3.org/2000/svg">
<path d="M3.75 19H1.75V18C1.75 16.1362 3.02477 14.57 4.75 14.126M6.75 10.8293C5.58481 10.4175 4.75 9.30623 4.75 8.00001C4.75 6.69379 5.58481 5.58255 6.75 5.17072M21.75 19H23.75V18C23.75 16.1362 22.4752 14.57 20.75 14.126M18.75 5.17072C19.9152 5.58255 20.75 6.69379 20.75 8.00001C20.75 9.30623 19.9152 10.4175 18.75 10.8293M10.75 14H14.75C16.9591 14 18.75 15.7909 18.75 18V19H6.75V18C6.75 15.7909 8.54086 14 10.75 14ZM15.75 8C15.75 9.65685 14.4069 11 12.75 11C11.0931 11 9.75 9.65685 9.75 8C9.75 6.34315 11.0931 5 12.75 5C14.4069 5 15.75 6.34315 15.75 8Z" stroke="#556987" stroke-width="1.5" stroke-linecap="round" stroke-linejoin="round"/>
</svg>
