<svg width="25" height="24" viewBox="0 0 25 24" fill="none" xmlns="http://www.w3.org/2000/svg">
<path d="M5.39999 12.7595C5.39999 11.4018 5.39999 10.7229 5.67446 10.1262C5.94892 9.52943 6.46436 9.08763 7.49525 8.20401L8.49525 7.34687C10.3586 5.74974 11.2902 4.95117 12.4 4.95117C13.5098 4.95117 14.4414 5.74974 16.3047 7.34687L17.3047 8.20401C18.3356 9.08763 18.8511 9.52943 19.1255 10.1262C19.4 10.7229 19.4 11.4018 19.4 12.7595V16.9999C19.4 18.8856 19.4 19.8284 18.8142 20.4142C18.2284 20.9999 17.2856 20.9999 15.4 20.9999H9.39999C7.51438 20.9999 6.57157 20.9999 5.98578 20.4142C5.39999 19.8284 5.39999 18.8856 5.39999 16.9999V12.7595Z" stroke="#556987"/>
<path d="M14.9 21V16C14.9 15.4477 14.4523 15 13.9 15H10.9C10.3477 15 9.89999 15.4477 9.89999 16V21" stroke="#556987" stroke-linecap="round" stroke-linejoin="round"/>
</svg>
