<svg width="15" height="17" viewBox="0 0 15 17" fill="none" xmlns="http://www.w3.org/2000/svg">
<path fill-rule="evenodd" clip-rule="evenodd" d="M0.941453 6.12617C0.666992 6.72291 0.666992 7.40179 0.666992 8.75955V12.9999C0.666992 14.8856 0.666992 15.8284 1.25278 16.4142C1.78433 16.9457 2.60984 16.9949 4.16699 16.9995V12C4.16699 10.8954 5.06242 10 6.16699 10H9.16699C10.2716 10 11.167 10.8954 11.167 12V16.9995C12.7241 16.9949 13.5497 16.9457 14.0812 16.4142C14.667 15.8284 14.667 14.8856 14.667 12.9999V8.75955C14.667 7.40179 14.667 6.72291 14.3925 6.12617C14.1181 5.52943 13.6026 5.08763 12.5717 4.20401L11.5717 3.34687C9.70842 1.74974 8.77676 0.951172 7.66699 0.951172C6.55722 0.951172 5.62556 1.74974 3.76224 3.34687L2.76224 4.20401C1.73136 5.08763 1.21591 5.52943 0.941453 6.12617ZM9.16699 16.9999V12H6.16699V16.9999H9.16699Z" fill="#56208C"/>
</svg>
