<svg width="24" height="24" viewBox="0 0 24 24" fill="none" xmlns="http://www.w3.org/2000/svg">
<mask id="mask0_2263_12194" style="mask-type:luminance" maskUnits="userSpaceOnUse" x="3" y="1" width="19" height="18">
<path fill-rule="evenodd" clip-rule="evenodd" d="M3.00009 1H21.497V18.348H3.00009V1Z" fill="white"/>
</mask>
<g mask="url(#mask0_2263_12194)">
<path fill-rule="evenodd" clip-rule="evenodd" d="M12.2471 2.5C8.75211 2.5 6.3161 5.238 6.3161 7.695C6.3161 9.774 5.7391 10.735 5.2291 11.583C4.8201 12.264 4.4971 12.802 4.4971 13.971C4.6641 15.857 5.90911 16.848 12.2471 16.848C18.5501 16.848 19.8341 15.813 20.0001 13.906C19.9971 12.802 19.6741 12.264 19.2651 11.583C18.7551 10.735 18.1781 9.774 18.1781 7.695C18.1781 5.238 15.7421 2.5 12.2471 2.5ZM12.2471 18.348C7.5711 18.348 3.3451 18.018 3.0001 14.035C2.9971 12.387 3.5001 11.549 3.9441 10.811C4.3931 10.063 4.8161 9.358 4.8161 7.695C4.8161 4.462 7.8021 1 12.2471 1C16.6921 1 19.6781 4.462 19.6781 7.695C19.6781 9.358 20.1011 10.063 20.5501 10.811C20.9941 11.549 21.4971 12.387 21.4971 13.971C21.1481 18.018 16.9231 18.348 12.2471 18.348Z" fill="white"/>
</g>
<path fill-rule="evenodd" clip-rule="evenodd" d="M12.1983 22.4996H12.1963C11.0753 22.4986 10.0143 22.0046 9.2093 21.1076C8.9323 20.8006 8.9573 20.3256 9.2653 20.0496C9.5733 19.7716 10.0473 19.7966 10.3243 20.1056C10.8423 20.6826 11.5073 20.9996 12.1973 20.9996H12.1983C12.8913 20.9996 13.5593 20.6826 14.0783 20.1046C14.3563 19.7976 14.8303 19.7726 15.1373 20.0496C15.4453 20.3266 15.4703 20.8016 15.1933 21.1086C14.3853 22.0056 13.3223 22.4996 12.1983 22.4996Z" fill="white"/>
</svg>
