<svg width="25" height="24" viewBox="0 0 25 24" fill="none" xmlns="http://www.w3.org/2000/svg">
<path d="M18.75 6.75H15.75V3C16.164 3 16.5 2.664 16.5 2.25C16.5 1.00725 15.4928 0 14.25 0H11.25C10.0072 0 9 1.00725 9 2.25C9 2.664 9.336 3 9.75 3V6.75H6.75C5.50725 6.75 4.5 7.75725 4.5 9V19.5C4.5 20.7428 5.50725 21.75 6.75 21.75H6.95775C6.77025 22.0725 6.68775 22.4648 6.8025 22.8885C6.95325 23.4473 7.422 23.8838 7.99275 23.9783C8.93475 24.135 9.75 23.4128 9.75 22.5C9.75 22.2255 9.6705 21.9713 9.54225 21.75H15.9585C15.771 22.0725 15.6885 22.4648 15.8032 22.8885C15.954 23.4473 16.4228 23.8838 16.9935 23.9783C17.9348 24.135 18.75 23.4128 18.75 22.5C18.75 22.2255 18.6705 21.9713 18.5422 21.75H18.75C19.9928 21.75 21 20.7428 21 19.5V9C21 7.75725 19.9928 6.75 18.75 6.75ZM11.25 0.75H14.25C15.0787 0.75 15.75 1.42125 15.75 2.25H15C15 1.836 14.664 1.5 14.25 1.5H11.25C10.836 1.5 10.5 1.836 10.5 2.25H9.75C9.75 1.42125 10.4212 0.75 11.25 0.75ZM15 3V6.75H10.5V3C10.914 3 11.25 2.664 11.25 2.25H14.25C14.25 2.664 14.586 3 15 3ZM8.25 23.25C7.83675 23.25 7.5 22.9132 7.5 22.5C7.5 22.0868 7.83675 21.75 8.25 21.75C8.66325 21.75 9 22.0868 9 22.5C9 22.9132 8.66325 23.25 8.25 23.25ZM17.25 23.25C16.8368 23.25 16.5 22.9132 16.5 22.5C16.5 22.0868 16.8368 21.75 17.25 21.75C17.6632 21.75 18 22.0868 18 22.5C18 22.9132 17.6632 23.25 17.25 23.25ZM20.25 19.5C20.25 20.3288 19.5787 21 18.75 21H6.75C5.92125 21 5.25 20.3288 5.25 19.5V12H11.25V12.75C11.25 13.164 11.586 13.5 12 13.5H13.5C13.914 13.5 14.25 13.164 14.25 12.75V12H20.25V19.5ZM12 12.75V10.5H13.5V12.75H12ZM20.25 11.25H14.25V10.5C14.25 10.086 13.914 9.75 13.5 9.75H12C11.586 9.75 11.25 10.086 11.25 10.5V11.25H5.25V9C5.25 8.17125 5.92125 7.5 6.75 7.5H18.75C19.5787 7.5 20.25 8.17125 20.25 9V11.25Z" fill="#556987"/>
</svg>
