<svg width="25" height="24" viewBox="0 0 25 24" fill="none" xmlns="http://www.w3.org/2000/svg">
<path d="M13.7 12H20.45V19.5C20.45 20.7428 19.4428 21.75 18.2 21.75H6.20001C4.95726 21.75 3.95001 20.7428 3.95001 19.5V12H10.7V12.75C10.7 13.164 11.036 13.5 11.45 13.5H12.95C13.364 13.5 13.7 13.164 13.7 12.75V12ZM12.95 10.5H11.45V12.75H12.95V10.5ZM20.45 9V11.25H13.7V10.5C13.7 10.086 13.364 9.75 12.95 9.75H11.45C11.036 9.75 10.7 10.086 10.7 10.5V11.25H3.95001V9C3.95001 7.75725 4.95726 6.75 6.20001 6.75H9.20001V3C8.78601 3 8.45001 2.664 8.45001 2.25C8.45001 1.00725 9.45726 0 10.7 0H13.7C14.9428 0 15.95 1.00725 15.95 2.25C15.95 2.664 15.614 3 15.2 3V6.75H18.2C19.4428 6.75 20.45 7.75725 20.45 9ZM14.45 3C14.036 3 13.7 2.664 13.7 2.25H10.7C10.7 2.664 10.364 3 9.95001 3V6.75H14.45V3ZM16.7 24C17.5288 24 18.2 23.3288 18.2 22.5H15.2C15.2 23.3288 15.8713 24 16.7 24ZM7.70001 24C8.52876 24 9.20001 23.3288 9.20001 22.5H6.20001C6.20001 23.3288 6.87126 24 7.70001 24Z" fill="#56208C"/>
</svg>
