<svg width="21" height="20" viewBox="0 0 21 20" fill="none" xmlns="http://www.w3.org/2000/svg">
<g clip-path="url(#clip0_2402_2193)">
<path d="M16.5 5.55833L10.7833 1.48075e-06H2.78333C2.1831 -0.000677935 1.60621 0.23247 1.175 0.650001C0.962089 0.853439 0.792532 1.09784 0.67653 1.36851C0.560529 1.63918 0.500482 1.93052 0.5 2.225L0.5 17.775C0.500482 18.0695 0.560529 18.3608 0.67653 18.6315C0.792532 18.9022 0.962089 19.1466 1.175 19.35C1.60621 19.7675 2.1831 20.0007 2.78333 20H14.2167C14.8169 20.0007 15.3938 19.7675 15.825 19.35C16.0379 19.1466 16.2075 18.9022 16.3235 18.6315C16.4395 18.3608 16.4995 18.0695 16.5 17.775V16.6667H20.5V7.775H16.5V5.55833ZM10.2167 1.8L14.6667 6.10833H10.2167V1.8ZM19.3833 8.89167V15.5583H5.64167V8.89167H19.3833Z" fill="#56208C"/>
<path d="M10.3 11.4083C10.309 11.6103 10.2749 11.812 10.2 11.9999C10.1206 12.1895 9.99785 12.3579 9.84166 12.4916C9.46583 12.7661 9.00632 12.9016 8.54166 12.8749H8.12499V14.4499H7.16666V9.99992H8.63332C9.07859 9.96178 9.52261 10.0861 9.88332 10.3499C10.0215 10.4871 10.1294 10.6518 10.2 10.8333C10.2754 11.0152 10.3095 11.2116 10.3 11.4083ZM8.09999 12.1166H8.42499C8.6576 12.1312 8.88865 12.0697 9.08332 11.9416C9.1555 11.8785 9.21491 11.8021 9.25832 11.7166C9.29429 11.6321 9.31407 11.5417 9.31666 11.4499C9.31919 11.3592 9.30507 11.2688 9.27499 11.1833C9.24011 11.1012 9.19228 11.0252 9.13332 10.9583C8.96323 10.848 8.75881 10.8036 8.55832 10.8333H8.12499V12.1416L8.09999 12.1166Z" fill="#56208C"/>
<path d="M14.9417 12.2084C14.9601 12.5171 14.9147 12.8264 14.8083 13.1168C14.6958 13.4083 14.5226 13.6725 14.3 13.8918C13.7813 14.3168 13.1187 14.5257 12.45 14.4751H11.1417V10.0001H12.5833C13.2169 9.9665 13.8395 10.175 14.325 10.5834C14.5368 10.7901 14.7015 11.04 14.8079 11.3162C14.9143 11.5923 14.9599 11.8881 14.9417 12.1834V12.2084ZM13.9333 12.2084C13.9333 11.2584 13.5 10.7918 12.6333 10.7918H12.1V13.6751H12.5167C12.713 13.6996 12.9123 13.678 13.0988 13.6122C13.2853 13.5463 13.454 13.438 13.5914 13.2957C13.7288 13.1534 13.8313 12.9811 13.8906 12.7924C13.95 12.6037 13.9646 12.4038 13.9333 12.2084Z" fill="#56208C"/>
<path d="M16.8333 14.475H15.875V10H18.5083V10.8333H16.8417V11.9833H18.4V12.7667H16.8333V14.475Z" fill="#56208C"/>
</g>
<defs>
<clipPath id="clip0_2402_2193">
<rect width="20" height="20" fill="white" transform="translate(0.5)"/>
</clipPath>
</defs>
</svg>
