<?xml version="1.0" encoding="utf-8"?>
<svg viewBox="4.534 3.155 22.931 25.69" fill="none" xmlns="http://www.w3.org/2000/svg">
  <path d="M9.83978 20.0001C10.0883 19.9983 10.3323 20.0661 10.5443 20.1957C10.7564 20.3252 10.928 20.5115 11.0398 20.7334C11.328 21.3144 11.7729 21.8032 12.3242 22.1449C12.8755 22.4865 13.5112 22.6672 14.1598 22.6667H18.0798C18.7283 22.6672 19.3641 22.4865 19.9154 22.1449C20.4667 21.8032 20.9115 21.3144 21.1998 20.7334C21.3116 20.5115 21.4832 20.3252 21.6952 20.1957C21.9073 20.0661 22.1513 19.9983 22.3998 20.0001H24.5598L25.3331 11.5734C25.3615 11.3029 25.3064 11.0302 25.1753 10.7919C25.0443 10.5535 24.8434 10.361 24.5998 10.2401L22.7464 9.33341L21.6664 5.01341C21.5934 4.71758 21.4213 4.45567 21.1787 4.2713C20.9361 4.08692 20.6377 3.9912 20.3331 4.00008H11.6264C11.3219 3.9912 11.0234 4.08692 10.7808 4.2713C10.5382 4.45567 10.3661 4.71758 10.2931 5.01341L9.25311 9.33341L7.39978 10.2534C7.15614 10.3743 6.95531 10.5669 6.82423 10.8052C6.69315 11.0435 6.63809 11.3162 6.66645 11.5867L7.43978 20.0001H9.83978Z" fill="#F2F4F7" stroke="#B382E9" stroke-width="1.5" stroke-linecap="round" stroke-linejoin="round" transform="matrix(1, 0, 0, 1, 4.440892098500626e-16, 4.440892098500626e-16)"/>
  <path d="M22.4003 20.0001H25.3336C25.5282 19.9976 25.721 20.0377 25.8984 20.1176C26.0758 20.1976 26.2336 20.3154 26.3607 20.4627C26.4877 20.6101 26.581 20.7836 26.6339 20.9708C26.6868 21.1581 26.6981 21.3547 26.6669 21.5468L25.9603 25.7734C25.8552 26.402 25.5285 26.9721 25.0393 27.3806C24.5501 27.7891 23.9308 28.0088 23.2936 28.0001H8.62693C7.98971 28.0088 7.37043 27.7891 6.88126 27.3806C6.39208 26.9721 6.06536 26.402 5.96027 25.7734L5.3336 21.5468C5.30245 21.3547 5.31372 21.1581 5.36663 20.9708C5.41954 20.7836 5.5128 20.6101 5.63986 20.4627C5.76692 20.3154 5.92471 20.1976 6.10214 20.1176C6.27957 20.0377 6.47235 19.9976 6.66693 20.0001H9.84027C10.0888 19.9984 10.3328 20.0661 10.5448 20.1957C10.7568 20.3253 10.9285 20.5115 11.0403 20.7334C11.3285 21.3144 11.7734 21.8033 12.3247 22.1449C12.8759 22.4865 13.5117 22.6673 14.1603 22.6668H18.0803C18.7288 22.6673 19.3646 22.4865 19.9159 22.1449C20.4672 21.8033 20.912 21.3144 21.2003 20.7334C21.3121 20.5115 21.4837 20.3253 21.6957 20.1957C21.9078 20.0661 22.1518 19.9984 22.4003 20.0001Z" stroke="#B382E9" stroke-width="1.5" stroke-linecap="round" stroke-linejoin="round" transform="matrix(1, 0, 0, 1, 4.440892098500626e-16, 4.440892098500626e-16)"/>
</svg>