<svg width="32" height="32" viewBox="0 0 32 32" fill="none" xmlns="http://www.w3.org/2000/svg">
<path d="M9.83953 19.9998C10.088 19.9981 10.332 20.0658 10.5441 20.1954C10.7561 20.325 10.9277 20.5113 11.0395 20.7332C11.3278 21.3141 11.7726 21.803 12.3239 22.1446C12.8752 22.4862 13.511 22.667 14.1595 22.6665H18.0795C18.7281 22.667 19.3639 22.4862 19.9151 22.1446C20.4664 21.803 20.9113 21.3141 21.1995 20.7332C21.3113 20.5113 21.483 20.325 21.695 20.1954C21.907 20.0658 22.151 19.9981 22.3995 19.9998H24.5595L25.3329 11.5732C25.3612 11.3027 25.3062 11.0299 25.1751 10.7916C25.044 10.5533 24.8432 10.3607 24.5995 10.2398L22.7462 9.33317L21.6662 5.01317C21.5932 4.71733 21.4211 4.45543 21.1785 4.27105C20.9359 4.08668 20.6374 3.99096 20.3329 3.99983H11.6262C11.3216 3.99096 11.0232 4.08668 10.7806 4.27105C10.538 4.45543 10.3659 4.71733 10.2929 5.01317L9.25287 9.33317L7.39953 10.2532C7.15589 10.3741 6.95506 10.5666 6.82398 10.8049C6.6929 11.0433 6.63785 11.316 6.6662 11.5865L7.43953 19.9998H9.83953Z" fill="#B382E9" fill-opacity="0.5" stroke="#56208C" stroke-width="1.5" stroke-linecap="round" stroke-linejoin="round"/>
<path d="M22.4 20.0001H25.3334C25.5279 19.9976 25.7207 20.0377 25.8981 20.1176C26.0756 20.1976 26.2334 20.3154 26.3604 20.4627C26.4875 20.6101 26.5808 20.7836 26.6337 20.9708C26.6866 21.1581 26.6978 21.3547 26.6667 21.5468L25.96 25.7734C25.8549 26.402 25.5282 26.9721 25.039 27.3806C24.5499 27.7891 23.9306 28.0088 23.2934 28.0001H8.62669C7.98947 28.0088 7.37019 27.7891 6.88101 27.3806C6.39184 26.9721 6.06512 26.402 5.96002 25.7734L5.33336 21.5468C5.30221 21.3547 5.31348 21.1581 5.36639 20.9708C5.41929 20.7836 5.51255 20.6101 5.63962 20.4627C5.76668 20.3154 5.92447 20.1976 6.1019 20.1176C6.27933 20.0377 6.47211 19.9976 6.66669 20.0001H9.84002C10.0885 19.9984 10.3325 20.0661 10.5446 20.1957C10.7566 20.3253 10.9282 20.5115 11.04 20.7334C11.3283 21.3144 11.7731 21.8033 12.3244 22.1449C12.8757 22.4865 13.5115 22.6673 14.16 22.6668H18.08C18.7286 22.6673 19.3643 22.4865 19.9156 22.1449C20.4669 21.8033 20.9118 21.3144 21.2 20.7334C21.3118 20.5115 21.4834 20.3253 21.6955 20.1957C21.9075 20.0661 22.1515 19.9984 22.4 20.0001Z" fill="#56208C" stroke="#56208C" stroke-width="1.5" stroke-linecap="round" stroke-linejoin="round"/>
</svg>
