<svg width="25" height="24" viewBox="0 0 25 24" fill="none" xmlns="http://www.w3.org/2000/svg">
<path fill-rule="evenodd" clip-rule="evenodd" d="M21.2023 13.58C21.56 13.77 21.8359 14.07 22.0301 14.37C22.4082 14.99 22.3776 15.75 22.0096 16.42L21.2943 17.62C20.9162 18.26 20.211 18.66 19.4854 18.66C19.1277 18.66 18.7292 18.56 18.4021 18.36C18.1364 18.19 17.8298 18.13 17.5028 18.13C16.4911 18.13 15.6429 18.96 15.6122 19.95C15.6122 21.1 14.672 22 13.4967 22H12.1069C10.9214 22 9.98121 21.1 9.98121 19.95C9.96077 18.96 9.11255 18.13 8.10081 18.13C7.76356 18.13 7.45698 18.19 7.20149 18.36C6.87446 18.56 6.46568 18.66 6.11821 18.66C5.3824 18.66 4.67725 18.26 4.29913 17.62L3.59398 16.42C3.21585 15.77 3.19541 14.99 3.57354 14.37C3.73705 14.07 4.04364 13.77 4.3911 13.58C4.67725 13.44 4.8612 13.21 5.03494 12.94C5.54592 12.08 5.23933 10.95 4.37066 10.44C3.35893 9.87 3.0319 8.6 3.61442 7.61L4.29913 6.43C4.89186 5.44 6.15909 5.09 7.18105 5.67C8.07015 6.15 9.22496 5.83 9.74616 4.98C9.90967 4.7 10.0016 4.4 9.98121 4.1C9.96077 3.71 10.0732 3.34 10.2674 3.04C10.6455 2.42 11.3302 2.02 12.0762 2H13.5172C14.2734 2 14.9581 2.42 15.3363 3.04C15.5202 3.34 15.6429 3.71 15.6122 4.1C15.5918 4.4 15.6837 4.7 15.8472 4.98C16.3684 5.83 17.5233 6.15 18.4226 5.67C19.4343 5.09 20.7118 5.44 21.2943 6.43L21.979 7.61C22.5717 8.6 22.2447 9.87 21.2227 10.44C20.3541 10.95 20.0475 12.08 20.5687 12.94C20.7322 13.21 20.9162 13.44 21.2023 13.58ZM9.90967 12.01C9.90967 13.58 11.2076 14.83 12.812 14.83C14.4165 14.83 15.6837 13.58 15.6837 12.01C15.6837 10.44 14.4165 9.18 12.812 9.18C11.2076 9.18 9.90967 10.44 9.90967 12.01Z" fill="#56208C"/>
</svg>
