<svg width="20" height="20" viewBox="0 0 20 20" fill="none" xmlns="http://www.w3.org/2000/svg">
<path fill-rule="evenodd" clip-rule="evenodd" d="M9.99999 5.62516C9.99981 4.94183 10.1597 4.26796 10.4668 3.65754C10.774 3.04713 11.2199 2.51715 11.7687 2.11007C12.3175 1.70299 12.9541 1.43014 13.6274 1.31337C14.3007 1.1966 14.992 1.23917 15.6458 1.43766C15.7492 1.46897 15.8426 1.52652 15.9171 1.60471C15.9916 1.68289 16.0446 1.77904 16.0708 1.88378C16.0971 1.98852 16.0958 2.09828 16.067 2.20236C16.0382 2.30644 15.983 2.40129 15.9067 2.47766L13.14 5.2435C13.1925 5.63933 13.37 6.02183 13.6742 6.326C13.9783 6.63016 14.3608 6.80766 14.7575 6.85933L17.5225 4.0935C17.5989 4.01716 17.6937 3.96191 17.7978 3.93313C17.9019 3.90436 18.0116 3.90304 18.1164 3.92931C18.2211 3.95558 18.3173 4.00854 18.3955 4.08303C18.4736 4.15751 18.5312 4.25098 18.5625 4.35433C18.7702 5.03838 18.8071 5.76289 18.6699 6.46449C18.5328 7.1661 18.2259 7.82341 17.7759 8.37893C17.326 8.93445 16.7468 9.37125 16.0889 9.65112C15.4311 9.93098 14.7148 10.0454 14.0025 9.98433C13.1542 9.91266 12.4442 10.0677 12.0783 10.5127L6.11999 17.7502C5.87602 18.045 5.57318 18.2856 5.23086 18.4566C4.88854 18.6276 4.51428 18.7252 4.13204 18.7432C3.74981 18.7612 3.36802 18.6992 3.01113 18.5612C2.65425 18.4231 2.33012 18.2121 2.05951 17.9415C1.7889 17.671 1.57777 17.3469 1.43964 16.99C1.30151 16.6332 1.23942 16.2514 1.25735 15.8692C1.27528 15.4869 1.37284 15.1126 1.54377 14.7703C1.7147 14.4279 1.95524 14.125 2.24999 13.881L9.48666 7.92183C9.93082 7.55516 10.0867 6.846 10.015 5.99766C10.0048 5.87376 9.99979 5.74949 9.99999 5.62516ZM3.43082 15.9377C3.43082 15.7719 3.49667 15.6129 3.61388 15.4957C3.73109 15.3785 3.89006 15.3127 4.05582 15.3127H4.06249C4.22825 15.3127 4.38722 15.3785 4.50443 15.4957C4.62164 15.6129 4.68749 15.7719 4.68749 15.9377V15.9443C4.68749 16.1101 4.62164 16.2691 4.50443 16.3863C4.38722 16.5035 4.22825 16.5693 4.06249 16.5693H4.05582C3.89006 16.5693 3.73109 16.5035 3.61388 16.3863C3.49667 16.2691 3.43082 16.1101 3.43082 15.9443V15.9377Z" fill="#56208C"/>
<path d="M8.39665 7.20012L6.56249 5.36678V4.06178C6.56248 3.95388 6.53454 3.84782 6.48138 3.75392C6.42823 3.66002 6.35167 3.58148 6.25915 3.52595L3.13415 1.65095C3.01463 1.5793 2.87459 1.54965 2.73629 1.56671C2.59798 1.58378 2.46935 1.64657 2.37082 1.74512L1.74582 2.37012C1.64727 2.46864 1.58448 2.59728 1.56742 2.73558C1.55036 2.87389 1.58 3.01393 1.65165 3.13345L3.52665 6.25845C3.58219 6.35096 3.66072 6.42753 3.75462 6.48068C3.84852 6.53384 3.95458 6.56178 4.06249 6.56178H5.36582L7.08415 8.28012L8.39665 7.19928V7.20012Z" fill="#56208C"/>
<path fill-rule="evenodd" clip-rule="evenodd" d="M10.4633 14.441L13.9492 17.926C14.2103 18.1872 14.5204 18.3943 14.8616 18.5357C15.2028 18.677 15.5686 18.7498 15.9379 18.7498C16.3072 18.7498 16.673 18.677 17.0142 18.5357C17.3554 18.3943 17.6655 18.1872 17.9267 17.926C18.1878 17.6648 18.395 17.3548 18.5363 17.0136C18.6777 16.6723 18.7504 16.3066 18.7504 15.9373C18.7504 15.5679 18.6777 15.2022 18.5363 14.8609C18.395 14.5197 18.1878 14.2097 17.9267 13.9485L15.1717 11.1943C14.7494 11.2542 14.3216 11.2662 13.8967 11.2302C13.5683 11.2018 13.3283 11.2252 13.1742 11.2652C13.1254 11.2755 13.0784 11.2932 13.035 11.3177L10.4633 14.441ZM13.3083 13.3077C13.4255 13.1906 13.5844 13.1249 13.75 13.1249C13.9156 13.1249 14.0745 13.1906 14.1917 13.3077L15.7542 14.871C15.8156 14.9282 15.8648 14.9972 15.899 15.0739C15.9331 15.1506 15.9515 15.2333 15.953 15.3172C15.9545 15.4012 15.939 15.4845 15.9076 15.5623C15.8762 15.6402 15.8294 15.7109 15.77 15.7702C15.7107 15.8296 15.64 15.8763 15.5621 15.9078C15.4843 15.9392 15.401 15.9546 15.317 15.9532C15.2331 15.9517 15.1504 15.9333 15.0737 15.8992C14.997 15.865 14.928 15.8157 14.8708 15.7543L13.3083 14.1918C13.1913 14.0746 13.1255 13.9158 13.1255 13.7502C13.1255 13.5845 13.1913 13.4257 13.3083 13.3085V13.3077Z" fill="#56208C"/>
</svg>
