<?xml version="1.0" encoding="utf-8"?>
<svg viewBox="0 0 32 32" fill="none" xmlns="http://www.w3.org/2000/svg">
  <path d="M30.4003 16.0002C30.4246 16.4426 30.4246 16.8859 30.4003 17.3282L27.0403 16.8642C26.0566 16.7466 25.0592 16.8389 24.1138 17.135C23.1684 17.431 22.2966 17.9242 21.5557 18.5819C20.8149 19.2396 20.2219 20.0469 19.8159 20.9505C19.4099 21.8541 19.2 22.8336 19.2003 23.8242V30.0482C17.0928 30.5176 14.9078 30.5176 12.8003 30.0482V23.8242C12.7995 22.8396 12.5912 21.8662 12.189 20.9675C11.7868 20.0688 11.1998 19.2649 10.4661 18.6082C9.73246 17.9516 8.86866 17.4569 7.93102 17.1564C6.99339 16.8559 6.00295 16.7563 5.02427 16.8642L1.60027 17.3282C1.57595 16.8859 1.57595 16.4426 1.60027 16.0002C1.59757 14.4609 1.84617 12.9315 2.33627 11.4722C11.2746 8.97605 20.7259 8.97605 29.6643 11.4722C30.1544 12.9315 30.403 14.4609 30.4003 16.0002Z" fill="#B382E9" transform="matrix(1, 0, 0, 1, 4.440892098500626e-16, 4.440892098500626e-16)"/>
  <path d="M19.2002 29.792V23.824C19.201 22.8394 19.4093 21.866 19.8115 20.9673C20.2137 20.0685 20.8007 19.2646 21.5344 18.608C22.268 17.9513 23.1318 17.4566 24.0694 17.1561C25.0071 16.8556 25.9975 16.7561 26.9762 16.864L30.1762 17.232" stroke="#56208C" stroke-width="2" stroke-linecap="round" stroke-linejoin="round" transform="matrix(1, 0, 0, 1, 4.440892098500626e-16, 4.440892098500626e-16)"/>
  <path d="M1.85645 17.232L5.05644 16.864C6.03263 16.7609 7.01958 16.864 7.95336 17.1667C8.88713 17.4693 9.74691 17.9648 10.477 18.621C11.2071 19.2771 11.7911 20.0794 12.1914 20.9757C12.5917 21.872 12.7992 22.8423 12.8004 23.824V29.792" stroke="#56208C" stroke-width="2" stroke-linecap="round" stroke-linejoin="round" transform="matrix(1, 0, 0, 1, 4.440892098500626e-16, 4.440892098500626e-16)"/>
  <path d="M29.392 11.4722C25.0416 10.2061 20.5309 9.57554 16 9.60021C11.4011 9.56877 6.82305 10.2212 2.41602 11.5362" stroke="#56208C" stroke-width="2" stroke-linecap="round" stroke-linejoin="round" transform="matrix(1, 0, 0, 1, 4.440892098500626e-16, 4.440892098500626e-16)"/>
  <path d="M16.0006 30.4001C23.9535 30.4001 30.4006 23.953 30.4006 16.0001C30.4006 8.0472 23.9535 1.6001 16.0006 1.6001C8.04768 1.6001 1.60059 8.0472 1.60059 16.0001C1.60059 23.953 8.04768 30.4001 16.0006 30.4001Z" stroke="#56208C" stroke-width="2" stroke-linecap="round" stroke-linejoin="round" transform="matrix(1, 0, 0, 1, 4.440892098500626e-16, 4.440892098500626e-16)"/>
</svg>