<svg width="22" height="16" viewBox="0 0 22 16" fill="none" xmlns="http://www.w3.org/2000/svg">
<path d="M15.5 2V2.75M15.5 5.75V6.5M15.5 9.5V10.25M15.5 13.25V14M6.5 8.75H11.75M6.5 11H9.5M2.375 1.25C1.754 1.25 1.25 1.754 1.25 2.375V5.401C1.70675 5.66398 2.08612 6.04267 2.34992 6.49895C2.61371 6.95522 2.7526 7.47296 2.7526 8C2.7526 8.52704 2.61371 9.04478 2.34992 9.50105C2.08612 9.95733 1.70675 10.336 1.25 10.599V13.625C1.25 14.246 1.754 14.75 2.375 14.75H19.625C20.246 14.75 20.75 14.246 20.75 13.625V10.599C20.2933 10.336 19.9139 9.95733 19.6501 9.50105C19.3863 9.04478 19.2474 8.52704 19.2474 8C19.2474 7.47296 19.3863 6.95522 19.6501 6.49895C19.9139 6.04267 20.2933 5.66398 20.75 5.401V2.375C20.75 1.754 20.246 1.25 19.625 1.25H2.375Z" stroke="#556987" stroke-width="1.5" stroke-linecap="round" stroke-linejoin="round"/>
</svg>
