<?xml version="1.0" encoding="utf-8"?>
<svg viewBox="0 0 161 16" fill="none" xmlns="http://www.w3.org/2000/svg">
  <defs>
    <clipPath id="clip0_2160_734">
      <rect width="16" height="16" fill="white" transform="translate(72)"/>
    </clipPath>
  </defs>
  <line x1="10" y1="8.5" x2="150" y2="8.5" stroke="#56208C" stroke-dasharray="3 3" transform="matrix(0.9999999999999999, 0, 0, 1, 0, 3.552713678800501e-15)"/>
  <ellipse cx="7.80896" cy="8" rx="7.80896" ry="8" fill="#F2F4F7" transform="matrix(0.9999999999999999, 0, 0, 1, 0, 3.552713678800501e-15)"/>
  <ellipse cx="7.80931" cy="8" rx="4.8806" ry="5" fill="#ECB6F5" transform="matrix(0.9999999999999999, 0, 0, 1, 0, 3.552713678800501e-15)"/>
  <ellipse cx="1.95224" cy="2" rx="1.95224" ry="2" transform="matrix(-0.9999999999999999, 0, 0, 1, 9.760739978049887, 5.999999814295965)" fill="#56208C"/>
  <ellipse cx="153.191" cy="8" rx="7.80896" ry="8" fill="#F2F4F7" transform="matrix(0.9999999999999999, 0, 0, 1, 0, 3.552713678800501e-15)"/>
  <ellipse cx="153.191" cy="8" rx="4.8806" ry="5" fill="#ECB6F5" transform="matrix(0.9999999999999999, 0, 0, 1, 0, 3.552713678800501e-15)"/>
  <ellipse cx="1.95224" cy="2" rx="1.95224" ry="2" transform="matrix(-0.9999999999999999, 0, 0, 1, 155.1430005693133, 5.999999814295965)" fill="#56208C"/>
  <g clip-path="url(#clip0_2160_734)" transform="matrix(0.9999999999999999, 0, 0, 1, 0, 3.552713678800501e-15)">
    <rect width="16" height="16" transform="translate(72)" fill="white"/>
    <path d="M74.667 11.3333C74.667 11.687 74.8075 12.0261 75.0575 12.2761C75.3076 12.5262 75.6467 12.6667 76.0003 12.6667C76.3539 12.6667 76.6931 12.5262 76.9431 12.2761C77.1932 12.0261 77.3337 11.687 77.3337 11.3333C77.3337 10.9797 77.1932 10.6406 76.9431 10.3905C76.6931 10.1405 76.3539 10 76.0003 10C75.6467 10 75.3076 10.1405 75.0575 10.3905C74.8075 10.6406 74.667 10.9797 74.667 11.3333Z" stroke="#56208C" stroke-linecap="round" stroke-linejoin="round"/>
    <path d="M82.667 11.3333C82.667 11.687 82.8075 12.0261 83.0575 12.2761C83.3076 12.5262 83.6467 12.6667 84.0003 12.6667C84.3539 12.6667 84.6931 12.5262 84.9431 12.2761C85.1932 12.0261 85.3337 11.687 85.3337 11.3333C85.3337 10.9797 85.1932 10.6406 84.9431 10.3905C84.6931 10.1405 84.3539 10 84.0003 10C83.6467 10 83.3076 10.1405 83.0575 10.3905C82.8075 10.6406 82.667 10.9797 82.667 11.3333Z" stroke="#56208C" stroke-linecap="round" stroke-linejoin="round"/>
    <path d="M74.6663 11.3335H73.333V4.00016C73.333 3.82335 73.4032 3.65378 73.5283 3.52876C73.6533 3.40373 73.8229 3.3335 73.9997 3.3335H83.333C84.2171 3.3335 85.0649 3.82516 85.69 4.70033C86.3152 5.5755 86.6663 6.76249 86.6663 8.00016V11.3335H85.333M82.6663 11.3335H77.333" stroke="#56208C" stroke-linecap="round" stroke-linejoin="round"/>
    <path d="M82.667 3.3335L83.667 8.00016H86.667" stroke="#56208C" stroke-linecap="round" stroke-linejoin="round"/>
    <path d="M73.333 6.6665H83.333" stroke="#56208C" stroke-linecap="round" stroke-linejoin="round"/>
    <path d="M76.667 3.3335V6.66683" stroke="#56208C" stroke-linecap="round" stroke-linejoin="round"/>
    <path d="M80 3.3335V6.66683" stroke="#56208C" stroke-linecap="round" stroke-linejoin="round"/>
  </g>
</svg>