<svg width="23" height="22" viewBox="0 0 23 22" fill="none" xmlns="http://www.w3.org/2000/svg">
<mask id="mask0_4998_34" style="mask-type:luminance" maskUnits="userSpaceOnUse" x="0" y="0" width="23" height="22">
<path fill-rule="evenodd" clip-rule="evenodd" d="M0.75 0.000244141H22.243V21.494H0.75V0.000244141Z" fill="white"/>
</mask>
<g mask="url(#mask0_4998_34)">
<path fill-rule="evenodd" clip-rule="evenodd" d="M5.85844 18.6752C6.43844 18.6752 6.98544 18.8952 7.56444 19.1282C11.1114 20.7682 15.3064 20.0222 18.0394 17.2902C21.6454 13.6822 21.6454 7.81324 18.0394 4.20724C16.2934 2.46124 13.9714 1.50024 11.4994 1.50024C9.02644 1.50024 6.70344 2.46224 4.95844 4.20824C2.22444 6.94024 1.48044 11.1352 3.10544 14.6482C3.33944 15.2272 3.56544 15.7912 3.56544 16.3772C3.56544 16.9622 3.36444 17.5512 3.18744 18.0712C3.04144 18.4992 2.82044 19.1452 2.96244 19.2872C3.10144 19.4312 3.75144 19.2042 4.18044 19.0572C4.69544 18.8812 5.27944 18.6792 5.85844 18.6752ZM11.4744 21.4942C9.94644 21.4942 8.40844 21.1712 6.96944 20.5052C6.54544 20.3352 6.14844 20.1752 5.86344 20.1752C5.53544 20.1772 5.09444 20.3292 4.66844 20.4762C3.79444 20.7762 2.70644 21.1502 1.90144 20.3482C1.09944 19.5452 1.46944 18.4602 1.76744 17.5872C1.91444 17.1572 2.06544 16.7132 2.06544 16.3772C2.06544 16.1012 1.93244 15.7492 1.72844 15.2422C-0.144563 11.1972 0.721437 6.32224 3.89844 3.14724C5.92644 1.11824 8.62544 0.000244141 11.4984 0.000244141C14.3714 0.000244141 17.0714 1.11724 19.0994 3.14624C23.2914 7.33824 23.2914 14.1582 19.0994 18.3502C17.0444 20.4062 14.2774 21.4942 11.4744 21.4942Z" fill="#556987"/>
</g>
<path fill-rule="evenodd" clip-rule="evenodd" d="M15.4463 12.163C14.8943 12.163 14.4423 11.716 14.4423 11.163C14.4423 10.61 14.8853 10.163 15.4373 10.163H15.4463C15.9983 10.163 16.4463 10.61 16.4463 11.163C16.4463 11.716 15.9983 12.163 15.4463 12.163Z" fill="#556987"/>
<path fill-rule="evenodd" clip-rule="evenodd" d="M11.4375 12.163C10.8855 12.163 10.4335 11.716 10.4335 11.163C10.4335 10.61 10.8755 10.163 11.4285 10.163H11.4375C11.9895 10.163 12.4375 10.61 12.4375 11.163C12.4375 11.716 11.9895 12.163 11.4375 12.163Z" fill="#556987"/>
<path fill-rule="evenodd" clip-rule="evenodd" d="M7.42832 12.163C6.87632 12.163 6.42432 11.716 6.42432 11.163C6.42432 10.61 6.86732 10.163 7.41932 10.163H7.42832C7.98032 10.163 8.42832 10.61 8.42832 11.163C8.42832 11.716 7.98032 12.163 7.42832 12.163Z" fill="#556987"/>
</svg>
