<svg width="22" height="19" viewBox="0 0 22 19" fill="none" xmlns="http://www.w3.org/2000/svg">
<path d="M15.809 12.521C16.2768 12.2015 16.8255 12.0211 17.3915 12.0004C17.9576 11.9798 18.518 12.1199 19.0078 12.4044C19.4976 12.689 19.8968 13.1064 20.1593 13.6084C20.4218 14.1104 20.5368 14.6764 20.491 15.241C19.2912 15.6603 18.0168 15.8235 16.75 15.72C16.7461 14.5866 16.4197 13.4768 15.809 12.522C15.2669 11.6718 14.5191 10.972 13.6348 10.4875C12.7505 10.003 11.7583 9.74932 10.75 9.75C9.74182 9.74948 8.74981 10.0032 7.86571 10.4877C6.98162 10.9723 6.23399 11.6719 5.69199 12.522M16.749 15.719L16.75 15.75C16.75 15.975 16.738 16.197 16.713 16.416C14.8983 17.4571 12.8421 18.0033 10.75 18C8.57998 18 6.54299 17.424 4.78699 16.416C4.76128 16.1846 4.74892 15.9519 4.74999 15.719M4.74999 15.719C3.48361 15.8263 2.20989 15.6637 1.01099 15.242C0.965336 14.6776 1.08038 14.1117 1.34281 13.6099C1.60525 13.1081 2.00435 12.6908 2.49399 12.4063C2.98362 12.1218 3.54378 11.9817 4.1097 12.0021C4.67563 12.0226 5.2242 12.2028 5.69199 12.522M4.74999 15.719C4.75358 14.5857 5.08161 13.4769 5.69199 12.522M13.75 3.75C13.75 4.54565 13.4339 5.30871 12.8713 5.87132C12.3087 6.43393 11.5456 6.75 10.75 6.75C9.95434 6.75 9.19127 6.43393 8.62866 5.87132C8.06606 5.30871 7.74999 4.54565 7.74999 3.75C7.74999 2.95435 8.06606 2.19129 8.62866 1.62868C9.19127 1.06607 9.95434 0.75 10.75 0.75C11.5456 0.75 12.3087 1.06607 12.8713 1.62868C13.4339 2.19129 13.75 2.95435 13.75 3.75ZM19.75 6.75C19.75 7.04547 19.6918 7.33806 19.5787 7.61104C19.4656 7.88402 19.2999 8.13206 19.091 8.34099C18.882 8.54992 18.634 8.71566 18.361 8.82873C18.088 8.9418 17.7955 9 17.5 9C17.2045 9 16.9119 8.9418 16.6389 8.82873C16.366 8.71566 16.1179 8.54992 15.909 8.34099C15.7001 8.13206 15.5343 7.88402 15.4213 7.61104C15.3082 7.33806 15.25 7.04547 15.25 6.75C15.25 6.15326 15.487 5.58097 15.909 5.15901C16.331 4.73705 16.9032 4.5 17.5 4.5C18.0967 4.5 18.669 4.73705 19.091 5.15901C19.5129 5.58097 19.75 6.15326 19.75 6.75ZM6.24999 6.75C6.24999 7.04547 6.19179 7.33806 6.07871 7.61104C5.96564 7.88402 5.79991 8.13206 5.59098 8.34099C5.38204 8.54992 5.13401 8.71566 4.86102 8.82873C4.58804 8.9418 4.29546 9 3.99999 9C3.70451 9 3.41193 8.9418 3.13895 8.82873C2.86596 8.71566 2.61793 8.54992 2.40899 8.34099C2.20006 8.13206 2.03433 7.88402 1.92126 7.61104C1.80818 7.33806 1.74999 7.04547 1.74999 6.75C1.74999 6.15326 1.98704 5.58097 2.40899 5.15901C2.83095 4.73705 3.40325 4.5 3.99999 4.5C4.59672 4.5 5.16902 4.73705 5.59098 5.15901C6.01293 5.58097 6.24999 6.15326 6.24999 6.75Z" stroke="#556987" stroke-width="1.5" stroke-linecap="round" stroke-linejoin="round"/>
</svg>
