<svg width="25" height="24" viewBox="0 0 25 24" fill="none" xmlns="http://www.w3.org/2000/svg">
<path d="M5.3999 12.7595C5.3999 11.4018 5.3999 10.7229 5.67436 10.1262C5.94882 9.52943 6.46427 9.08763 7.49515 8.20401L8.49515 7.34687C10.3585 5.74974 11.2901 4.95117 12.3999 4.95117C13.5097 4.95117 14.4413 5.74974 16.3047 7.34687L17.3047 8.20401C18.3355 9.08763 18.851 9.52943 19.1254 10.1262C19.3999 10.7229 19.3999 11.4018 19.3999 12.7595V16.9999C19.3999 18.8856 19.3999 19.8284 18.8141 20.4142C18.2283 20.9999 17.2855 20.9999 15.3999 20.9999H9.3999C7.51428 20.9999 6.57148 20.9999 5.98569 20.4142C5.3999 19.8284 5.3999 18.8856 5.3999 16.9999V12.7595Z" stroke="#556987"/>
<path d="M14.8999 21V16C14.8999 15.4477 14.4522 15 13.8999 15H10.8999C10.3476 15 9.8999 15.4477 9.8999 16V21" stroke="#556987" stroke-linecap="round" stroke-linejoin="round"/>
</svg>
