<svg width="25" height="24" viewBox="0 0 25 24" fill="none" xmlns="http://www.w3.org/2000/svg">
<path d="M19.25 20V18.5M5.25 20V18.5" stroke="#556987" stroke-width="1.5" stroke-linecap="round"/>
<path d="M2.25 15C2.25 14.0681 2.25 13.6022 2.40224 13.2346C2.60523 12.7446 2.99458 12.3552 3.48463 12.1522C3.85218 12 4.31812 12 5.25 12H19.25C20.1819 12 20.6478 12 21.0154 12.1522C21.5054 12.3552 21.8948 12.7446 22.0978 13.2346C22.25 13.6022 22.25 14.0681 22.25 15C22.25 15.9319 22.25 16.3978 22.0978 16.7654C21.8948 17.2554 21.5054 17.6448 21.0154 17.8478C20.6478 18 20.1819 18 19.25 18H5.25C4.31812 18 3.85218 18 3.48463 17.8478C2.99458 17.6448 2.60523 17.2554 2.40224 16.7654C2.25 16.3978 2.25 15.9319 2.25 15Z" stroke="#556987" stroke-width="1.5"/>
<path d="M21.25 12C21.25 8.22876 21.25 6.34315 20.0784 5.17157C18.9069 4 17.0212 4 13.25 4H11.25C7.47876 4 5.59315 4 4.42157 5.17157C3.25 6.34315 3.25 8.22876 3.25 12" stroke="#556987" stroke-width="1.5"/>
<path d="M18.75 12V10.5C18.75 8.61438 18.75 7.67157 18.1642 7.08579C17.5784 6.5 16.6356 6.5 14.75 6.5H9.75C7.86438 6.5 6.92157 6.5 6.33579 7.08579C5.75 7.67157 5.75 8.61438 5.75 10.5V12" stroke="#556987" stroke-width="1.5"/>
<path d="M12.25 7V12" stroke="#556987" stroke-width="1.5"/>
</svg>
