<svg width="20" height="21" viewBox="0 0 20 21" fill="none" xmlns="http://www.w3.org/2000/svg">
<mask id="mask0_4998_443" style="mask-type:luminance" maskUnits="userSpaceOnUse" x="0" y="0" width="20" height="21">
<path fill-rule="evenodd" clip-rule="evenodd" d="M0.25 0.000488281H19.5349V20.7215H0.25V0.000488281Z" fill="white"/>
</mask>
<g mask="url(#mask0_4998_443)">
<path fill-rule="evenodd" clip-rule="evenodd" d="M5.4522 15.4405C5.6812 15.4405 5.9102 15.4695 6.1342 15.5295C6.8102 15.7115 7.3972 16.1635 7.7452 16.7705C7.9712 17.1515 8.0962 17.5965 8.1002 18.0505C8.1002 18.7005 8.6222 19.2215 9.2642 19.2215H10.5172C11.1562 19.2215 11.6782 18.7035 11.6812 18.0645C11.6772 17.3585 11.9532 16.6875 12.4582 16.1825C12.9562 15.6845 13.6522 15.3855 14.3482 15.4055C14.8042 15.4165 15.2432 15.5395 15.6302 15.7595C16.1872 16.0785 16.8982 15.8885 17.2202 15.3385L17.8842 14.2315C18.0322 13.9765 18.0752 13.6565 17.9962 13.3615C17.9182 13.0665 17.7222 12.8105 17.4582 12.6595C16.8402 12.3035 16.3992 11.7295 16.2162 11.0415C16.0352 10.3665 16.1342 9.62949 16.4872 9.02249C16.7172 8.62249 17.0542 8.28549 17.4582 8.05349C18.0002 7.73649 18.1902 7.02749 17.8752 6.47549C17.8622 6.45349 17.8502 6.43049 17.8402 6.40649L17.2542 5.39049C16.9352 4.83549 16.2252 4.64449 15.6682 4.96149C15.0662 5.31749 14.3502 5.41949 13.6622 5.23849C12.9752 5.06049 12.3992 4.62549 12.0402 4.01149C11.8102 3.62749 11.6852 3.18049 11.6812 2.72549C11.6902 2.38349 11.5702 2.07649 11.3522 1.85149C11.1352 1.62749 10.8302 1.50049 10.5172 1.50049H9.2642C8.9542 1.50049 8.6642 1.62149 8.4452 1.83949C8.2272 2.05849 8.1082 2.34949 8.1102 2.65949C8.0892 4.12149 6.8942 5.29849 5.4472 5.29849C4.9832 5.29349 4.5362 5.16849 4.1482 4.93649C3.6032 4.62649 2.8912 4.81749 2.5722 5.37249L1.8952 6.48549C1.5852 7.02349 1.7752 7.73449 2.3272 8.05549C3.1462 8.52949 3.6572 9.41349 3.6572 10.3615C3.6572 11.3095 3.1462 12.1925 2.3252 12.6675C1.7762 12.9855 1.5862 13.6925 1.9042 14.2425L2.5352 15.3305C2.6912 15.6115 2.9462 15.8145 3.2412 15.8975C3.5352 15.9795 3.8592 15.9445 4.1292 15.7945C4.5262 15.5615 4.9882 15.4405 5.4522 15.4405ZM10.5172 20.7215H9.2642C7.7952 20.7215 6.6002 19.5275 6.6002 18.0585C6.5982 17.8775 6.5462 17.6895 6.4492 17.5265C6.2922 17.2525 6.0382 17.0565 5.7452 16.9785C5.4542 16.9005 5.1352 16.9435 4.8732 17.0955C4.2452 17.4455 3.5062 17.5305 2.8302 17.3405C2.1552 17.1495 1.5722 16.6855 1.2302 16.0705L0.605198 14.9935C-0.125802 13.7255 0.309198 12.1005 1.5752 11.3685C1.9342 11.1615 2.1572 10.7755 2.1572 10.3615C2.1572 9.94749 1.9342 9.56049 1.5752 9.35349C0.308198 8.61749 -0.125802 6.98849 0.604198 5.72049L1.2822 4.60749C2.0032 3.35349 3.6332 2.91149 4.9042 3.64149C5.0772 3.74449 5.2652 3.79649 5.4562 3.79849C6.0792 3.79849 6.6002 3.28449 6.6102 2.65249C6.6062 1.95549 6.8812 1.28649 7.3822 0.781488C7.8852 0.277488 8.5532 0.000488281 9.2642 0.000488281H10.5172C11.2332 0.000488281 11.9292 0.294488 12.4282 0.805488C12.9262 1.31949 13.2012 2.02449 13.1802 2.73949C13.1822 2.90049 13.2352 3.08649 13.3312 3.24949C13.4902 3.51949 13.7412 3.70949 14.0392 3.78749C14.3372 3.86149 14.6492 3.82149 14.9142 3.66449C16.1942 2.93349 17.8232 3.37149 18.5542 4.64149L19.1772 5.72049C19.1932 5.74949 19.2072 5.77749 19.2192 5.80649C19.8812 7.05749 19.4392 8.63249 18.2092 9.35149C18.0302 9.45449 17.8852 9.59849 17.7852 9.77249C17.6302 10.0415 17.5872 10.3615 17.6652 10.6555C17.7452 10.9555 17.9362 11.2045 18.2052 11.3585C18.8122 11.7075 19.2652 12.2955 19.4462 12.9745C19.6272 13.6525 19.5282 14.3885 19.1752 14.9955L18.5112 16.1015C17.7802 17.3575 16.1512 17.7925 14.8842 17.0605C14.7152 16.9635 14.5202 16.9105 14.3262 16.9055H14.3202C14.0312 16.9055 13.7342 17.0285 13.5182 17.2435C13.2992 17.4625 13.1792 17.7545 13.1812 18.0645C13.1742 19.5335 11.9792 20.7215 10.5172 20.7215Z" fill="#556987"/>
</g>
<path fill-rule="evenodd" clip-rule="evenodd" d="M9.89516 8.47461C8.85516 8.47461 8.00916 9.32161 8.00916 10.3616C8.00916 11.4016 8.85516 12.2466 9.89516 12.2466C10.9352 12.2466 11.7812 11.4016 11.7812 10.3616C11.7812 9.32161 10.9352 8.47461 9.89516 8.47461ZM9.89516 13.7466C8.02816 13.7466 6.50916 12.2286 6.50916 10.3616C6.50916 8.49461 8.02816 6.97461 9.89516 6.97461C11.7622 6.97461 13.2812 8.49461 13.2812 10.3616C13.2812 12.2286 11.7622 13.7466 9.89516 13.7466Z" fill="#556987"/>
</svg>
