<svg width="21" height="20" viewBox="0 0 21 20" fill="none" xmlns="http://www.w3.org/2000/svg">
<path fill-rule="evenodd" clip-rule="evenodd" d="M0.800049 10.015C0.800049 4.74712 5.01005 0 10.82 0C16.5 0 20.8 4.65699 20.8 9.98498C20.8 16.1642 15.76 20 10.8 20C9.16005 20 7.34005 19.5593 5.88005 18.698C5.37005 18.3876 4.94005 18.1572 4.39005 18.3375L2.37005 18.9384C1.86005 19.0986 1.40005 18.698 1.55005 18.1572L2.22005 15.9139C2.33005 15.6034 2.31005 15.2729 2.15005 15.0125C1.29005 13.4301 0.800049 11.6975 0.800049 10.015ZM9.50005 10.015C9.50005 10.7261 10.07 11.2969 10.78 11.307C11.49 11.307 12.06 10.7261 12.06 10.025C12.06 9.31397 11.49 8.74311 10.78 8.74311C10.08 8.7331 9.50005 9.31397 9.50005 10.015ZM14.11 10.025C14.11 10.7261 14.68 11.307 15.39 11.307C16.1 11.307 16.67 10.7261 16.67 10.025C16.67 9.31397 16.1 8.74311 15.39 8.74311C14.68 8.74311 14.11 9.31397 14.11 10.025ZM6.17005 11.307C5.47005 11.307 4.89005 10.7261 4.89005 10.025C4.89005 9.31397 5.46005 8.74311 6.17005 8.74311C6.88005 8.74311 7.45005 9.31397 7.45005 10.025C7.45005 10.7261 6.88005 11.2969 6.17005 11.307Z" fill="#56208C"/>
</svg>
