<svg width="20" height="19" viewBox="0 0 20 19" fill="none" xmlns="http://www.w3.org/2000/svg">
<path fill-rule="evenodd" clip-rule="evenodd" d="M6.45007 3.75C6.45007 2.75544 6.84516 1.80161 7.54842 1.09835C8.25168 0.395088 9.20551 0 10.2001 0C11.1946 0 12.1485 0.395088 12.8517 1.09835C13.555 1.80161 13.9501 2.75544 13.9501 3.75C13.9501 4.74456 13.555 5.69839 12.8517 6.40165C12.1485 7.10491 11.1946 7.5 10.2001 7.5C9.20551 7.5 8.25168 7.10491 7.54842 6.40165C6.84516 5.69839 6.45007 4.74456 6.45007 3.75ZM13.9501 6.75C13.9501 5.95435 14.2661 5.19129 14.8288 4.62868C15.3914 4.06607 16.1544 3.75 16.9501 3.75C17.7457 3.75 18.5088 4.06607 19.0714 4.62868C19.634 5.19129 19.9501 5.95435 19.9501 6.75C19.9501 7.54565 19.634 8.30871 19.0714 8.87132C18.5088 9.43393 17.7457 9.75 16.9501 9.75C16.1544 9.75 15.3914 9.43393 14.8288 8.87132C14.2661 8.30871 13.9501 7.54565 13.9501 6.75ZM0.450073 6.75C0.450073 5.95435 0.766144 5.19129 1.32875 4.62868C1.89136 4.06607 2.65442 3.75 3.45007 3.75C4.24572 3.75 5.00878 4.06607 5.57139 4.62868C6.134 5.19129 6.45007 5.95435 6.45007 6.75C6.45007 7.54565 6.134 8.30871 5.57139 8.87132C5.00878 9.43393 4.24572 9.75 3.45007 9.75C2.65442 9.75 1.89136 9.43393 1.32875 8.87132C0.766144 8.30871 0.450073 7.54565 0.450073 6.75ZM4.51007 12.117C5.12002 11.161 5.96115 10.3743 6.95569 9.82944C7.95024 9.28463 9.06608 8.99936 10.2001 9C11.1499 8.99913 12.0892 9.19888 12.9565 9.58616C13.8237 9.97344 14.5995 10.5395 15.2328 11.2474C15.8662 11.9552 16.3429 12.7888 16.6317 13.6936C16.9206 14.5985 17.0151 15.5541 16.9091 16.498C16.8961 16.6153 16.8557 16.7278 16.791 16.8265C16.7264 16.9252 16.6394 17.0073 16.5371 17.066C14.6086 18.1725 12.4234 18.7532 10.2001 18.75C7.89507 18.75 5.73007 18.138 3.86307 17.066C3.76076 17.0073 3.67375 16.9252 3.60912 16.8265C3.54448 16.7278 3.50404 16.6153 3.49107 16.498C3.32313 14.9646 3.68253 13.4198 4.51007 12.118V12.117Z" fill="#56208C"/>
</svg>
