<svg width="20" height="20" viewBox="0 0 20 20" fill="none" xmlns="http://www.w3.org/2000/svg">
<path fill-rule="evenodd" clip-rule="evenodd" d="M18.0022 11.58C18.3599 11.77 18.6358 12.07 18.83 12.37C19.2081 12.99 19.1775 13.75 18.8095 14.42L18.0942 15.62C17.7161 16.26 17.0109 16.66 16.2853 16.66C15.9276 16.66 15.5291 16.56 15.202 16.36C14.9363 16.19 14.6297 16.13 14.3027 16.13C13.291 16.13 12.4428 16.96 12.4121 17.95C12.4121 19.1 11.4719 20 10.2966 20H8.90678C7.72131 20 6.78111 19.1 6.78111 17.95C6.76067 16.96 5.91244 16.13 4.90071 16.13C4.56346 16.13 4.25687 16.19 4.00138 16.36C3.67436 16.56 3.26557 16.66 2.91811 16.66C2.1823 16.66 1.47715 16.26 1.09902 15.62L0.393873 14.42C0.0157491 13.77 -0.00469007 12.99 0.373434 12.37C0.536947 12.07 0.843535 11.77 1.191 11.58C1.47715 11.44 1.6611 11.21 1.83483 10.94C2.34581 10.08 2.03922 8.95 1.17056 8.44C0.158823 7.87 -0.168203 6.6 0.414312 5.61L1.09902 4.43C1.69176 3.44 2.95899 3.09 3.98094 3.67C4.87005 4.15 6.02486 3.83 6.54606 2.98C6.70957 2.7 6.80155 2.4 6.78111 2.1C6.76067 1.71 6.87308 1.34 7.06726 1.04C7.44538 0.42 8.13009 0.02 8.87612 0H10.3171C11.0733 0 11.758 0.42 12.1362 1.04C12.3201 1.34 12.4428 1.71 12.4121 2.1C12.3917 2.4 12.4836 2.7 12.6471 2.98C13.1683 3.83 14.3232 4.15 15.2225 3.67C16.2342 3.09 17.5117 3.44 18.0942 4.43L18.7789 5.61C19.3716 6.6 19.0446 7.87 18.0226 8.44C17.154 8.95 16.8474 10.08 17.3686 10.94C17.5321 11.21 17.7161 11.44 18.0022 11.58ZM6.70957 10.01C6.70957 11.58 8.00746 12.83 9.61193 12.83C11.2164 12.83 12.4836 11.58 12.4836 10.01C12.4836 8.44 11.2164 7.18 9.61193 7.18C8.00746 7.18 6.70957 8.44 6.70957 10.01Z" fill="#56208C"/>
</svg>
